<?xml version="1.0" encoding="utf-8"?>
<svg width="168" height="23" viewBox="0 0 168 23" fill="none" xmlns="http://www.w3.org/2000/svg">
  <path d="M0.000210938 2.72516C0.000210938 5.07516 0.800211 6.22516 4.00021 8.32516C7.55021 10.6752 8.00021 11.4252 8.00021 14.9252C8.00021 19.8252 9.50021 22.7252 12.0502 22.7252C13.8002 22.7252 14.0002 22.0252 14.0002 14.9752L13.9502 7.22516L7.55021 3.47516C-0.149789 -1.02484 0.000210938 -1.02484 0.000210938 2.72516Z" style="fill: rgb(255, 255, 255);"/>
  <path d="M22.2502 3.52516L16.0502 7.22516L16.0002 14.9752C16.0002 22.0252 16.2002 22.7252 17.9502 22.7252C20.5002 22.7252 22.0002 19.8252 22.0002 14.9252C22.0002 11.4252 22.4502 10.6752 26.0002 8.32516C29.2002 6.22516 30.0002 5.07516 30.0002 2.72516C30.0002 -1.02484 29.8502 -0.974842 22.2502 3.52516Z" style="fill: rgb(255, 255, 255);"/>
  <text style="fill: rgb(255, 255, 255); font-family: Arial, sans-serif; font-size: 18px; font-weight: 700; stroke: rgb(255, 255, 255); white-space: pre;" x="38.079" y="16.823">Bamboo</text>
  <text style="fill: rgb(255, 255, 255); font-family: Arial, sans-serif; font-size: 11px; white-space: pre;" transform="matrix(1, 0, 0, 1, 4.259155, -0.32507)"><tspan x="115.707" y="10.293">Content </tspan><tspan x="115.707" dy="1em">​</tspan><tspan>Manager</tspan></text>
</svg>